<svg xmlns="http://www.w3.org/2000/svg" xmlns:xlink="http://www.w3.org/1999/xlink" width="50" zoomAndPan="magnify" viewBox="0 0 37.5 37.499999" height="50" preserveAspectRatio="xMidYMid meet" version="1.0"><defs><g/><clipPath id="id1"><path d="M 17 13.195312 L 22 13.195312 L 22 24 L 17 24 Z M 17 13.195312 " clip-rule="nonzero"/></clipPath><clipPath id="id2"><path d="M 19 18 L 28.167969 18 L 28.167969 24 L 19 24 Z M 19 18 " clip-rule="nonzero"/></clipPath><clipPath id="id3"><path d="M 10.167969 18 L 20 18 L 20 24 L 10.167969 24 Z M 10.167969 18 " clip-rule="nonzero"/></clipPath></defs><path fill="#ed5b2d" d="M 13.378906 14.941406 C 13.378906 14.941406 13.136719 18.050781 14.871094 20.3125 C 16.609375 22.574219 19.664062 23.132812 19.664062 23.132812 C 19.664062 23.132812 19.90625 20.023438 18.171875 17.761719 C 16.4375 15.5 13.378906 14.941406 13.378906 14.941406 Z M 13.378906 14.941406 " fill-opacity="1" fill-rule="nonzero"/><path fill="#ed5b2d" d="M 20.167969 17.761719 C 18.433594 20.023438 18.675781 23.132812 18.675781 23.132812 C 18.675781 23.132812 21.730469 22.574219 23.464844 20.3125 C 25.199219 18.050781 24.957031 14.941406 24.957031 14.941406 C 24.957031 14.941406 21.902344 15.5 20.167969 17.761719 Z M 20.167969 17.761719 " fill-opacity="1" fill-rule="nonzero"/><g clip-path="url(#id1)"><path fill="#291b25" d="M 17.085938 18.363281 C 17.085938 21.21875 19.167969 23.535156 19.167969 23.535156 C 19.167969 23.535156 21.25 21.21875 21.25 18.363281 C 21.25 15.507812 19.167969 13.195312 19.167969 13.195312 C 19.167969 13.195312 17.085938 15.507812 17.085938 18.363281 Z M 17.085938 18.363281 " fill-opacity="1" fill-rule="nonzero"/></g><g clip-path="url(#id2)"><path fill="#f7b9a1" d="M 22.636719 19.414062 C 20.132812 20.765625 19.089844 23.703125 19.089844 23.703125 C 19.089844 23.703125 22.105469 24.449219 24.609375 23.09375 C 27.113281 21.742188 28.160156 18.804688 28.160156 18.804688 C 28.160156 18.804688 25.140625 18.0625 22.636719 19.414062 Z M 22.636719 19.414062 " fill-opacity="1" fill-rule="nonzero"/></g><g clip-path="url(#id3)"><path fill="#f7b9a1" d="M 15.699219 19.414062 C 13.195312 18.0625 10.179688 18.804688 10.179688 18.804688 C 10.179688 18.804688 11.222656 21.742188 13.726562 23.09375 C 16.234375 24.449219 19.25 23.703125 19.25 23.703125 C 19.25 23.703125 18.203125 20.765625 15.699219 19.414062 Z M 15.699219 19.414062 " fill-opacity="1" fill-rule="nonzero"/></g><g fill="#291b25" fill-opacity="1"><g transform="translate(3.491016, 28.871809)"><g><path d="M 2.5 -1.015625 L 2.96875 0 L 3.4375 0 L 1.84375 -3.4375 L 1.59375 -3.4375 L 0.140625 0 L 0.375 0 L 0.796875 -1.015625 Z M 2.390625 -1.234375 L 0.890625 -1.234375 L 1.609375 -2.890625 L 1.625 -2.890625 Z M 2.390625 -1.234375 "/></g></g></g><g fill="#291b25" fill-opacity="1"><g transform="translate(7.04813, 28.871809)"><g><path d="M 1.34375 -0.578125 L 0.5 -2.453125 L 0.046875 -2.453125 L 1.140625 -0.03125 L 0.890625 0.609375 C 0.859375 0.679688 0.816406 0.738281 0.765625 0.78125 C 0.722656 0.832031 0.671875 0.859375 0.609375 0.859375 C 0.546875 0.859375 0.488281 0.835938 0.4375 0.796875 C 0.382812 0.765625 0.34375 0.71875 0.3125 0.65625 L 0.09375 1.0625 C 0.15625 1.113281 0.222656 1.148438 0.296875 1.171875 C 0.378906 1.203125 0.453125 1.21875 0.515625 1.21875 C 0.609375 1.21875 0.6875 1.195312 0.75 1.15625 C 0.820312 1.113281 0.882812 1.054688 0.9375 0.984375 C 0.988281 0.910156 1.035156 0.828125 1.078125 0.734375 C 1.117188 0.640625 1.15625 0.550781 1.1875 0.46875 L 2.375 -2.453125 L 2.140625 -2.453125 L 1.359375 -0.578125 Z M 1.34375 -0.578125 "/></g></g></g><g fill="#291b25" fill-opacity="1"><g transform="translate(9.488132, 28.871809)"><g><path d="M 0.390625 -2.453125 L 0.390625 -0.859375 C 0.390625 -0.796875 0.394531 -0.710938 0.40625 -0.609375 C 0.414062 -0.515625 0.445312 -0.414062 0.5 -0.3125 C 0.5625 -0.207031 0.648438 -0.117188 0.765625 -0.046875 C 0.890625 0.0234375 1.0625 0.0625 1.28125 0.0625 C 1.375 0.0625 1.472656 0.0390625 1.578125 0 C 1.691406 -0.0390625 1.804688 -0.117188 1.921875 -0.234375 L 2 -0.3125 L 2.03125 -0.3125 L 2.03125 0 L 2.4375 0 L 2.4375 -2.453125 L 2.03125 -2.453125 L 2.03125 -0.9375 C 2.03125 -0.800781 2.007812 -0.6875 1.96875 -0.59375 C 1.9375 -0.507812 1.890625 -0.4375 1.828125 -0.375 C 1.765625 -0.3125 1.691406 -0.265625 1.609375 -0.234375 C 1.535156 -0.210938 1.457031 -0.203125 1.375 -0.203125 C 1.238281 -0.203125 1.128906 -0.226562 1.046875 -0.28125 C 0.972656 -0.332031 0.914062 -0.394531 0.875 -0.46875 C 0.84375 -0.539062 0.820312 -0.609375 0.8125 -0.671875 C 0.8125 -0.742188 0.8125 -0.796875 0.8125 -0.828125 L 0.8125 -2.453125 Z M 0.390625 -2.453125 "/></g></g></g><g fill="#291b25" fill-opacity="1"><g transform="translate(12.305405, 28.871809)"><g><path d="M 0.390625 -2.453125 L 0.390625 0 L 0.8125 0 L 0.8125 -1.484375 C 0.8125 -1.617188 0.828125 -1.734375 0.859375 -1.828125 C 0.890625 -1.921875 0.925781 -1.992188 0.96875 -2.046875 C 1.019531 -2.109375 1.070312 -2.148438 1.125 -2.171875 C 1.1875 -2.203125 1.25 -2.21875 1.3125 -2.21875 C 1.382812 -2.21875 1.453125 -2.191406 1.515625 -2.140625 C 1.578125 -2.097656 1.625 -2.050781 1.65625 -2 L 1.828125 -2.3125 C 1.796875 -2.351562 1.757812 -2.382812 1.71875 -2.40625 C 1.675781 -2.4375 1.632812 -2.457031 1.59375 -2.46875 C 1.550781 -2.488281 1.515625 -2.5 1.484375 -2.5 C 1.453125 -2.5 1.425781 -2.5 1.40625 -2.5 C 1.269531 -2.5 1.15625 -2.460938 1.0625 -2.390625 C 0.96875 -2.316406 0.894531 -2.207031 0.84375 -2.0625 L 0.8125 -2.0625 L 0.8125 -2.453125 Z M 0.390625 -2.453125 "/></g></g></g><g fill="#291b25" fill-opacity="1"><g transform="translate(14.147655, 28.871809)"><g><path d="M 0.09375 -2.453125 L 1.125 0 L 1.40625 0 L 2.40625 -2.453125 L 2.171875 -2.453125 L 1.375 -0.484375 L 1.34375 -0.484375 L 0.53125 -2.453125 Z M 0.09375 -2.453125 "/></g></g></g><g fill="#291b25" fill-opacity="1"><g transform="translate(16.617055, 28.871809)"><g><path d="M 2.578125 -1.125 L 2.578125 -1.21875 C 2.578125 -1.4375 2.546875 -1.625 2.484375 -1.78125 C 2.421875 -1.945312 2.332031 -2.082031 2.21875 -2.1875 C 2.113281 -2.289062 1.988281 -2.367188 1.84375 -2.421875 C 1.707031 -2.472656 1.5625 -2.5 1.40625 -2.5 C 1.238281 -2.5 1.082031 -2.46875 0.9375 -2.40625 C 0.800781 -2.351562 0.679688 -2.269531 0.578125 -2.15625 C 0.472656 -2.050781 0.390625 -1.921875 0.328125 -1.765625 C 0.273438 -1.609375 0.25 -1.429688 0.25 -1.234375 C 0.25 -1.078125 0.269531 -0.921875 0.3125 -0.765625 C 0.363281 -0.609375 0.441406 -0.46875 0.546875 -0.34375 C 0.648438 -0.21875 0.78125 -0.117188 0.9375 -0.046875 C 1.101562 0.0234375 1.289062 0.0625 1.5 0.0625 C 1.707031 0.0625 1.898438 0.0234375 2.078125 -0.046875 C 2.253906 -0.117188 2.410156 -0.226562 2.546875 -0.375 L 2.390625 -0.53125 C 2.316406 -0.46875 2.25 -0.410156 2.1875 -0.359375 C 2.132812 -0.316406 2.078125 -0.273438 2.015625 -0.234375 C 1.953125 -0.203125 1.882812 -0.175781 1.8125 -0.15625 C 1.75 -0.144531 1.675781 -0.140625 1.59375 -0.140625 C 1.5 -0.140625 1.398438 -0.148438 1.296875 -0.171875 C 1.191406 -0.203125 1.097656 -0.253906 1.015625 -0.328125 C 0.929688 -0.398438 0.859375 -0.5 0.796875 -0.625 C 0.734375 -0.75 0.703125 -0.914062 0.703125 -1.125 Z M 0.703125 -1.3125 C 0.703125 -1.445312 0.71875 -1.570312 0.75 -1.6875 C 0.78125 -1.8125 0.820312 -1.921875 0.875 -2.015625 C 0.9375 -2.109375 1.007812 -2.179688 1.09375 -2.234375 C 1.175781 -2.296875 1.28125 -2.328125 1.40625 -2.328125 C 1.632812 -2.328125 1.8125 -2.238281 1.9375 -2.0625 C 2.070312 -1.882812 2.140625 -1.632812 2.140625 -1.3125 Z M 1.34375 -3.5 L 1.890625 -3.5 L 1.125 -2.875 L 0.9375 -2.875 Z M 1.34375 -3.5 "/></g></g></g><g fill="#291b25" fill-opacity="1"><g transform="translate(19.400031, 28.871809)"><g><path d="M 2.578125 -3.4375 L 2.15625 -3.4375 L 2.15625 -2.046875 L 2.140625 -2.046875 C 2.097656 -2.128906 2.050781 -2.195312 2 -2.25 C 1.945312 -2.3125 1.882812 -2.359375 1.8125 -2.390625 C 1.75 -2.429688 1.675781 -2.457031 1.59375 -2.46875 C 1.519531 -2.488281 1.445312 -2.5 1.375 -2.5 C 1.207031 -2.5 1.054688 -2.46875 0.921875 -2.40625 C 0.785156 -2.351562 0.664062 -2.269531 0.5625 -2.15625 C 0.457031 -2.039062 0.378906 -1.90625 0.328125 -1.75 C 0.273438 -1.59375 0.25 -1.421875 0.25 -1.234375 C 0.25 -1.035156 0.273438 -0.859375 0.328125 -0.703125 C 0.378906 -0.546875 0.457031 -0.410156 0.5625 -0.296875 C 0.664062 -0.179688 0.785156 -0.09375 0.921875 -0.03125 C 1.054688 0.03125 1.207031 0.0625 1.375 0.0625 C 1.757812 0.0625 2.015625 -0.0859375 2.140625 -0.390625 L 2.15625 -0.390625 L 2.15625 0 L 2.578125 0 Z M 2.15625 -0.984375 C 2.15625 -0.867188 2.132812 -0.765625 2.09375 -0.671875 C 2.0625 -0.578125 2.015625 -0.492188 1.953125 -0.421875 C 1.890625 -0.347656 1.816406 -0.289062 1.734375 -0.25 C 1.648438 -0.21875 1.5625 -0.203125 1.46875 -0.203125 C 1.363281 -0.203125 1.265625 -0.21875 1.171875 -0.25 C 1.085938 -0.289062 1.007812 -0.347656 0.9375 -0.421875 C 0.863281 -0.503906 0.804688 -0.613281 0.765625 -0.75 C 0.734375 -0.882812 0.71875 -1.039062 0.71875 -1.21875 C 0.71875 -1.40625 0.734375 -1.5625 0.765625 -1.6875 C 0.804688 -1.820312 0.863281 -1.929688 0.9375 -2.015625 C 1.007812 -2.097656 1.085938 -2.15625 1.171875 -2.1875 C 1.265625 -2.226562 1.363281 -2.25 1.46875 -2.25 C 1.5625 -2.25 1.648438 -2.226562 1.734375 -2.1875 C 1.816406 -2.15625 1.890625 -2.101562 1.953125 -2.03125 C 2.015625 -1.957031 2.0625 -1.867188 2.09375 -1.765625 C 2.132812 -1.660156 2.15625 -1.539062 2.15625 -1.40625 Z M 2.15625 -0.984375 "/></g></g></g><g fill="#291b25" fill-opacity="1"><g transform="translate(22.329995, 28.871809)"><g><path d="M 0.546875 -2.453125 L 0.546875 0 L 0.96875 0 L 0.96875 -2.453125 Z M 0.484375 -3.234375 C 0.484375 -3.160156 0.507812 -3.097656 0.5625 -3.046875 C 0.613281 -2.992188 0.675781 -2.96875 0.75 -2.96875 C 0.820312 -2.96875 0.882812 -2.992188 0.9375 -3.046875 C 0.988281 -3.097656 1.015625 -3.160156 1.015625 -3.234375 C 1.015625 -3.304688 0.988281 -3.367188 0.9375 -3.421875 C 0.882812 -3.472656 0.820312 -3.5 0.75 -3.5 C 0.675781 -3.5 0.613281 -3.472656 0.5625 -3.421875 C 0.507812 -3.367188 0.484375 -3.304688 0.484375 -3.234375 Z M 0.484375 -3.234375 "/></g></g></g><g fill="#291b25" fill-opacity="1"><g transform="translate(23.809675, 28.871809)"><g><path d="M 2.578125 1.21875 L 2.15625 1.21875 L 2.15625 -0.40625 L 2.140625 -0.40625 C 2.097656 -0.320312 2.050781 -0.25 2 -0.1875 C 1.945312 -0.125 1.882812 -0.0703125 1.8125 -0.03125 C 1.75 0 1.675781 0.0195312 1.59375 0.03125 C 1.519531 0.0507812 1.445312 0.0625 1.375 0.0625 C 1.207031 0.0625 1.054688 0.03125 0.921875 -0.03125 C 0.785156 -0.09375 0.664062 -0.175781 0.5625 -0.28125 C 0.457031 -0.394531 0.378906 -0.53125 0.328125 -0.6875 C 0.273438 -0.851562 0.25 -1.03125 0.25 -1.21875 C 0.25 -1.414062 0.273438 -1.59375 0.328125 -1.75 C 0.378906 -1.90625 0.457031 -2.039062 0.5625 -2.15625 C 0.664062 -2.269531 0.785156 -2.351562 0.921875 -2.40625 C 1.054688 -2.46875 1.207031 -2.5 1.375 -2.5 C 1.757812 -2.5 2.015625 -2.351562 2.140625 -2.0625 L 2.15625 -2.0625 L 2.15625 -2.453125 L 2.578125 -2.453125 Z M 2.15625 -1.46875 C 2.15625 -1.582031 2.132812 -1.6875 2.09375 -1.78125 C 2.0625 -1.875 2.015625 -1.957031 1.953125 -2.03125 C 1.890625 -2.101562 1.816406 -2.15625 1.734375 -2.1875 C 1.648438 -2.226562 1.5625 -2.25 1.46875 -2.25 C 1.363281 -2.25 1.265625 -2.226562 1.171875 -2.1875 C 1.085938 -2.15625 1.007812 -2.097656 0.9375 -2.015625 C 0.863281 -1.941406 0.804688 -1.835938 0.765625 -1.703125 C 0.734375 -1.566406 0.71875 -1.410156 0.71875 -1.234375 C 0.71875 -1.046875 0.734375 -0.882812 0.765625 -0.75 C 0.804688 -0.625 0.863281 -0.519531 0.9375 -0.4375 C 1.007812 -0.351562 1.085938 -0.289062 1.171875 -0.25 C 1.265625 -0.21875 1.363281 -0.203125 1.46875 -0.203125 C 1.5625 -0.203125 1.648438 -0.21875 1.734375 -0.25 C 1.816406 -0.289062 1.890625 -0.347656 1.953125 -0.421875 C 2.015625 -0.492188 2.0625 -0.582031 2.09375 -0.6875 C 2.132812 -0.789062 2.15625 -0.910156 2.15625 -1.046875 Z M 2.15625 -1.46875 "/></g></g></g><g fill="#291b25" fill-opacity="1"><g transform="translate(26.739639, 28.871809)"><g><path d="M 0.390625 -2.453125 L 0.390625 -0.859375 C 0.390625 -0.796875 0.394531 -0.710938 0.40625 -0.609375 C 0.414062 -0.515625 0.445312 -0.414062 0.5 -0.3125 C 0.5625 -0.207031 0.648438 -0.117188 0.765625 -0.046875 C 0.890625 0.0234375 1.0625 0.0625 1.28125 0.0625 C 1.375 0.0625 1.472656 0.0390625 1.578125 0 C 1.691406 -0.0390625 1.804688 -0.117188 1.921875 -0.234375 L 2 -0.3125 L 2.03125 -0.3125 L 2.03125 0 L 2.4375 0 L 2.4375 -2.453125 L 2.03125 -2.453125 L 2.03125 -0.9375 C 2.03125 -0.800781 2.007812 -0.6875 1.96875 -0.59375 C 1.9375 -0.507812 1.890625 -0.4375 1.828125 -0.375 C 1.765625 -0.3125 1.691406 -0.265625 1.609375 -0.234375 C 1.535156 -0.210938 1.457031 -0.203125 1.375 -0.203125 C 1.238281 -0.203125 1.128906 -0.226562 1.046875 -0.28125 C 0.972656 -0.332031 0.914062 -0.394531 0.875 -0.46875 C 0.84375 -0.539062 0.820312 -0.609375 0.8125 -0.671875 C 0.8125 -0.742188 0.8125 -0.796875 0.8125 -0.828125 L 0.8125 -2.453125 Z M 0.390625 -2.453125 "/></g></g></g><g fill="#291b25" fill-opacity="1"><g transform="translate(29.556911, 28.871809)"><g><path d="M 2.578125 -1.125 L 2.578125 -1.21875 C 2.578125 -1.4375 2.546875 -1.625 2.484375 -1.78125 C 2.421875 -1.945312 2.332031 -2.082031 2.21875 -2.1875 C 2.113281 -2.289062 1.988281 -2.367188 1.84375 -2.421875 C 1.707031 -2.472656 1.5625 -2.5 1.40625 -2.5 C 1.238281 -2.5 1.082031 -2.46875 0.9375 -2.40625 C 0.800781 -2.351562 0.679688 -2.269531 0.578125 -2.15625 C 0.472656 -2.050781 0.390625 -1.921875 0.328125 -1.765625 C 0.273438 -1.609375 0.25 -1.429688 0.25 -1.234375 C 0.25 -1.078125 0.269531 -0.921875 0.3125 -0.765625 C 0.363281 -0.609375 0.441406 -0.46875 0.546875 -0.34375 C 0.648438 -0.21875 0.78125 -0.117188 0.9375 -0.046875 C 1.101562 0.0234375 1.289062 0.0625 1.5 0.0625 C 1.707031 0.0625 1.898438 0.0234375 2.078125 -0.046875 C 2.253906 -0.117188 2.410156 -0.226562 2.546875 -0.375 L 2.390625 -0.53125 C 2.316406 -0.46875 2.25 -0.410156 2.1875 -0.359375 C 2.132812 -0.316406 2.078125 -0.273438 2.015625 -0.234375 C 1.953125 -0.203125 1.882812 -0.175781 1.8125 -0.15625 C 1.75 -0.144531 1.675781 -0.140625 1.59375 -0.140625 C 1.5 -0.140625 1.398438 -0.148438 1.296875 -0.171875 C 1.191406 -0.203125 1.097656 -0.253906 1.015625 -0.328125 C 0.929688 -0.398438 0.859375 -0.5 0.796875 -0.625 C 0.734375 -0.75 0.703125 -0.914062 0.703125 -1.125 Z M 0.703125 -1.3125 C 0.703125 -1.445312 0.71875 -1.570312 0.75 -1.6875 C 0.78125 -1.8125 0.820312 -1.921875 0.875 -2.015625 C 0.9375 -2.109375 1.007812 -2.179688 1.09375 -2.234375 C 1.175781 -2.296875 1.28125 -2.328125 1.40625 -2.328125 C 1.632812 -2.328125 1.8125 -2.238281 1.9375 -2.0625 C 2.070312 -1.882812 2.140625 -1.632812 2.140625 -1.3125 Z M 0.703125 -1.3125 "/></g></g></g><g fill="#291b25" fill-opacity="1"><g transform="translate(32.339885, 28.871809)"><g><path d="M 1.953125 -1.890625 C 1.953125 -1.984375 1.925781 -2.066406 1.875 -2.140625 C 1.832031 -2.210938 1.769531 -2.273438 1.6875 -2.328125 C 1.613281 -2.378906 1.523438 -2.421875 1.421875 -2.453125 C 1.316406 -2.484375 1.203125 -2.5 1.078125 -2.5 C 0.960938 -2.5 0.851562 -2.484375 0.75 -2.453125 C 0.65625 -2.429688 0.570312 -2.390625 0.5 -2.328125 C 0.425781 -2.265625 0.367188 -2.191406 0.328125 -2.109375 C 0.285156 -2.023438 0.265625 -1.925781 0.265625 -1.8125 C 0.265625 -1.65625 0.296875 -1.53125 0.359375 -1.4375 C 0.429688 -1.34375 0.519531 -1.269531 0.625 -1.21875 C 0.738281 -1.164062 0.859375 -1.117188 0.984375 -1.078125 C 1.109375 -1.046875 1.222656 -1.007812 1.328125 -0.96875 C 1.441406 -0.925781 1.535156 -0.875 1.609375 -0.8125 C 1.679688 -0.75 1.71875 -0.664062 1.71875 -0.5625 C 1.71875 -0.507812 1.707031 -0.457031 1.6875 -0.40625 C 1.675781 -0.363281 1.648438 -0.320312 1.609375 -0.28125 C 1.578125 -0.238281 1.523438 -0.203125 1.453125 -0.171875 C 1.378906 -0.148438 1.289062 -0.140625 1.1875 -0.140625 C 1.0625 -0.140625 0.953125 -0.160156 0.859375 -0.203125 C 0.765625 -0.242188 0.6875 -0.289062 0.625 -0.34375 C 0.570312 -0.40625 0.535156 -0.460938 0.515625 -0.515625 C 0.492188 -0.578125 0.484375 -0.628906 0.484375 -0.671875 L 0.15625 -0.671875 C 0.15625 -0.578125 0.175781 -0.484375 0.21875 -0.390625 C 0.269531 -0.304688 0.335938 -0.226562 0.421875 -0.15625 C 0.503906 -0.09375 0.609375 -0.0390625 0.734375 0 C 0.859375 0.0390625 1.003906 0.0625 1.171875 0.0625 C 1.472656 0.0625 1.695312 -0.00390625 1.84375 -0.140625 C 2 -0.273438 2.078125 -0.445312 2.078125 -0.65625 C 2.078125 -0.8125 2.039062 -0.9375 1.96875 -1.03125 C 1.894531 -1.132812 1.800781 -1.210938 1.6875 -1.265625 C 1.582031 -1.328125 1.460938 -1.375 1.328125 -1.40625 C 1.203125 -1.445312 1.082031 -1.484375 0.96875 -1.515625 C 0.863281 -1.554688 0.773438 -1.601562 0.703125 -1.65625 C 0.628906 -1.71875 0.59375 -1.800781 0.59375 -1.90625 C 0.59375 -1.945312 0.597656 -1.988281 0.609375 -2.03125 C 0.628906 -2.082031 0.65625 -2.128906 0.6875 -2.171875 C 0.726562 -2.210938 0.78125 -2.242188 0.84375 -2.265625 C 0.914062 -2.296875 1 -2.3125 1.09375 -2.3125 C 1.195312 -2.3125 1.285156 -2.296875 1.359375 -2.265625 C 1.429688 -2.242188 1.488281 -2.210938 1.53125 -2.171875 C 1.582031 -2.128906 1.617188 -2.082031 1.640625 -2.03125 C 1.660156 -1.976562 1.671875 -1.929688 1.671875 -1.890625 Z M 1.953125 -1.890625 "/></g></g></g><g fill="#291b25" fill-opacity="1"><g transform="translate(7.470653, 13.649031)"><g><path d="M -1.285156 -2.800781 L 0.359375 -0.230469 L 0.453125 -0.289062 L -0.996094 -2.5625 L 1.289062 -0.824219 L 1.554688 -0.992188 L 0.933594 -3.824219 L 2.398438 -1.527344 L 2.640625 -1.679688 L 0.992188 -4.257812 L 0.753906 -4.101562 L 1.414062 -1.089844 L -1.042969 -2.957031 Z M -1.285156 -2.800781 "/></g></g></g><g fill="#291b25" fill-opacity="1"><g transform="translate(10.831912, 11.575013)"><g><path d="M 0.394531 -0.15625 L 0.503906 -0.203125 L 0.4375 -1.019531 L 1.625 -1.492188 L 2.136719 -0.855469 L 2.414062 -0.96875 L 0.410156 -3.453125 L 0.128906 -3.339844 L 0.128906 -3.335938 Z M 0.429688 -1.136719 L 0.261719 -3.175781 L 1.546875 -1.585938 Z M 0.429688 -1.136719 "/></g></g></g><g fill="#291b25" fill-opacity="1"><g transform="translate(14.066567, 10.340474)"><g><path d="M 1.183594 -0.214844 C 1.289062 -0.242188 1.34375 -0.257812 1.417969 -0.296875 C 1.769531 -0.480469 1.984375 -0.8125 1.953125 -1.160156 C 1.910156 -1.722656 1.382812 -1.835938 0.996094 -1.917969 C 0.972656 -1.921875 0.945312 -1.929688 0.921875 -1.9375 C 0.503906 -2.027344 0.21875 -2.144531 0.164062 -2.417969 C 0.0429688 -3.070312 0.894531 -3.503906 1.269531 -2.980469 L 1.363281 -3.050781 C 1.203125 -3.265625 0.859375 -3.398438 0.433594 -3.214844 C 0.0859375 -3.0625 -0.1875 -2.730469 -0.113281 -2.363281 C -0.0117188 -1.847656 0.574219 -1.714844 0.855469 -1.652344 C 0.882812 -1.648438 0.90625 -1.640625 0.933594 -1.636719 C 1.363281 -1.546875 1.6875 -1.300781 1.703125 -0.984375 C 1.730469 -0.304688 0.882812 -0.0585938 0.316406 -0.574219 L 0.238281 -0.492188 C 0.554688 -0.203125 0.90625 -0.152344 1.183594 -0.214844 Z M 1.183594 -0.214844 "/></g></g></g><g fill="#291b25" fill-opacity="1"><g transform="translate(16.962322, 9.733209)"><g><path d="M 1.203125 -0.0351562 C 1.308594 -0.046875 1.367188 -0.0546875 1.449219 -0.0820312 C 1.824219 -0.207031 2.082031 -0.507812 2.105469 -0.855469 C 2.144531 -1.414062 1.640625 -1.605469 1.269531 -1.746094 C 1.25 -1.753906 1.222656 -1.765625 1.199219 -1.777344 C 0.800781 -1.929688 0.535156 -2.085938 0.527344 -2.367188 C 0.5 -3.03125 1.410156 -3.328125 1.699219 -2.757812 L 1.804688 -2.8125 C 1.679688 -3.050781 1.359375 -3.234375 0.910156 -3.113281 C 0.546875 -3.015625 0.222656 -2.730469 0.242188 -2.355469 C 0.265625 -1.828125 0.824219 -1.609375 1.09375 -1.507812 C 1.121094 -1.5 1.144531 -1.488281 1.167969 -1.476562 C 1.582031 -1.324219 1.863281 -1.035156 1.832031 -0.714844 C 1.757812 -0.0429688 0.882812 0.078125 0.398438 -0.519531 L 0.308594 -0.453125 C 0.582031 -0.117188 0.917969 -0.015625 1.203125 -0.0351562 Z M 1.203125 -0.0351562 "/></g></g></g><g fill="#291b25" fill-opacity="1"><g transform="translate(19.898867, 9.548122)"><g><path d="M 0.421875 0.0390625 L 0.542969 0.0507812 L 0.855469 -0.703125 L 2.125 -0.582031 L 2.289062 0.21875 L 2.589844 0.246094 L 1.945312 -2.882812 L 1.644531 -2.910156 L 1.644531 -2.90625 Z M 0.902344 -0.816406 L 1.6875 -2.703125 L 2.101562 -0.699219 Z M 0.902344 -0.816406 "/></g></g></g><g fill="#291b25" fill-opacity="1"><g transform="translate(23.324513, 9.909247)"><g><path d="M 1.585938 0.496094 C 1.996094 0.601562 2.46875 0.484375 2.71875 0.128906 L 2.972656 -0.792969 L 2.324219 -0.972656 L 2.292969 -0.863281 L 2.664062 -0.757812 L 2.414062 0.144531 C 2.414062 0.144531 2.164062 0.457031 1.757812 0.40625 C 1.0625 0.289062 0.8125 -0.578125 1.007812 -1.28125 C 1.199219 -1.957031 1.84375 -2.546875 2.390625 -2.394531 C 2.667969 -2.316406 2.890625 -2.097656 3.023438 -1.800781 L 3.128906 -1.847656 C 2.980469 -2.179688 2.722656 -2.421875 2.421875 -2.503906 C 1.722656 -2.699219 0.960938 -2.1875 0.730469 -1.359375 C 0.5 -0.53125 0.886719 0.300781 1.585938 0.496094 Z M 1.585938 0.496094 "/></g></g></g><g fill="#291b25" fill-opacity="1"><g transform="translate(26.684184, 10.898647)"><g><path d="M 0.386719 0.179688 L 2.027344 0.953125 L 2.078125 0.847656 L 0.695312 0.199219 L 1.277344 -1.042969 L 2.320312 -0.554688 L 2.371094 -0.65625 L 1.328125 -1.148438 L 1.894531 -2.355469 L 3.195312 -1.746094 L 3.246094 -1.847656 L 1.683594 -2.582031 Z M 0.386719 0.179688 "/></g></g></g><g fill="#291b25" fill-opacity="1"><g transform="translate(29.482335, 12.256452)"><g><path d="M 0.972656 0.710938 C 1.0625 0.765625 1.113281 0.796875 1.191406 0.824219 C 1.566406 0.953125 1.957031 0.878906 2.1875 0.617188 C 2.5625 0.199219 2.28125 -0.261719 2.074219 -0.601562 C 2.0625 -0.621094 2.050781 -0.644531 2.039062 -0.667969 C 1.816406 -1.03125 1.703125 -1.316406 1.867188 -1.546875 C 2.253906 -2.082031 3.15625 -1.761719 3.035156 -1.132812 L 3.148438 -1.113281 C 3.199219 -1.375 3.054688 -1.71875 2.628906 -1.898438 C 2.28125 -2.046875 1.851562 -2.019531 1.636719 -1.710938 C 1.332031 -1.28125 1.640625 -0.765625 1.789062 -0.515625 C 1.804688 -0.496094 1.816406 -0.472656 1.828125 -0.449219 C 2.0625 -0.078125 2.105469 0.328125 1.886719 0.558594 C 1.414062 1.042969 0.648438 0.601562 0.636719 -0.167969 L 0.523438 -0.164062 C 0.527344 0.265625 0.734375 0.550781 0.972656 0.710938 Z M 0.972656 0.710938 "/></g></g></g></svg>